PathFileType	4	(X/Y/Z)	/Users/itak/Documents/Research/Walk-IL/dataset/trc/00086_00006.trc
DataRate	CameraRate	NumFrames	NumMarkers	Units	OrigDataRate	OrigDataStartFrame	OrigNumFrames
100.000000	100.000000	4	53	mm	100.000000	209	559
Frame#	Time	RPSI			LPSI			L3			STRN			T10			C7			CLAV			RBAK			LBAK			LSHO			LUPA			LAEL			LAOL			LWTS			LWPS			LFRA			LIFD			LHPS			LHTS			RSHO			RUPA			RAEL			RAOL			RWTS			RWPS			RFRA			RIFD			RHTS			RHPS			RBHD			LFHD			RFHD			LBHD			LHIP			RHIP			RASI			LASI			LKNE			LTHI			LANK			LTIP			LTOE			LMT1			LMT5			LHEE			RKNE			RTHI			RANK			RTIP			RTOE			RMT1			RMT5			RHEE			
		X1	Y1	Z1	X2	Y2	Z2	X3	Y3	Z3	X4	Y4	Z4	X5	Y5	Z5	X6	Y6	Z6	X7	Y7	Z7	X8	Y8	Z8	X9	Y9	Z9	X10	Y10	Z10	X11	Y11	Z11	X12	Y12	Z12	X13	Y13	Z13	X14	Y14	Z14	X15	Y15	Z15	X16	Y16	Z16	X17	Y17	Z17	X18	Y18	Z18	X19	Y19	Z19	X20	Y20	Z20	X21	Y21	Z21	X22	Y22	Z22	X23	Y23	Z23	X24	Y24	Z24	X25	Y25	Z25	X26	Y26	Z26	X27	Y27	Z27	X28	Y28	Z28	X29	Y29	Z29	X30	Y30	Z30	X31	Y31	Z31	X32	Y32	Z32	X33	Y33	Z33	X34	Y34	Z34	X35	Y35	Z35	X36	Y36	Z36	X37	Y37	Z37	X38	Y38	Z38	X39	Y39	Z39	X40	Y40	Z40	X41	Y41	Z41	X42	Y42	Z42	X43	Y43	Z43	X44	Y44	Z44	X45	Y45	Z45	X46	Y46	Z46	X47	Y47	Z47	X48	Y48	Z48	X49	Y49	Z49	X50	Y50	Z50	X51	Y51	Z51	X52	Y52	Z52	X53	Y53	Z53	

210	2.09	-1215.835571289062	1016.401672363281	504.1567687988281	-1218.64111328125	1003.982543945312	327.9302978515625	-1212.29931640625	1070.395263671875	415.2815551757812	-947.2700805664062	1255.8212890625	419.87939453125	-1219.37939453125	1204.69775390625	418.1867370605469	-1144.996337890625	1468.20751953125	420.1192626953125	-970.5376586914062	1372.045654296875	418.7604370117188	-1213.752563476562	1332.225708007812	493.103271484375	-1171.4853515625	1433.692993164062	319.8875427246094	-1070.686401367188	1433.189331054688	245.1745910644531	-1103.961303710938	1312.00146484375	166.0157165527344	-1113.386352539062	1100.15625	132.9485015869141	-1165.038208007812	1085.859741210938	225.6235198974609	-1037.720092773438	850.3413696289062	169.955078125	-1104.373779296875	847.7791748046875	119.0726699829102	-1104.893798828125	990.408447265625	116.9072265625	-1039.330444335938	662.3418579101562	177.816162109375	-1080.22412109375	764.6410522460938	115.8253784179688	-1023.767700195312	766.2496948242188	159.4160919189453	-1082.510375976562	1425.704711914062	594.1873779296875	-1098.322631835938	1358.726806640625	657.7869873046875	-1144.21826171875	1095.942504882812	690.718017578125	-1125.42724609375	1072.152465820312	594.703369140625	-1002.087951660156	842.3343505859375	653.5400390625	-1073.486083984375	826.7965087890625	702.2759399414062	-1133.369262695312	1014.348205566406	698.143310546875	-993.3809814453125	653.4049682617188	639.1421508789062	-978.2699584960938	741.695556640625	652.959228515625	-1034.93994140625	738.64794921875	704.9530029296875	-1081.025268554688	1629.926147460938	511.7667541503906	-939.8602905273438	1676.820190429688	346.1629943847656	-918.7044067382812	1670.0908203125	470.226806640625	-1112.412841796875	1644.577514648438	377.7557678222656	-1108.412231445312	947.5904541015625	238.6540222167969	-1156.540161132812	938.3273315429688	581.4916381835938	-1030.744750976562	949.5949096679688	568.5411987304688	-1002.835876464844	953.724853515625	302.575927734375	-880.8016357421875	530.9844970703125	296.0796813964844	-963.4519653320312	646.9354858398438	248.1099395751953	-829.794921875	59.95737457275391	279.4535827636719	-860.8386840820312	284.3575744628906	272.2735290527344	-641.94921875	128.9253234863281	306.4115295410156	-689.7448120117188	105.1713943481445	352.938232421875	-728.2778930664062	85.23949432373047	250.9500885009766	-884.2007446289062	43.46519088745117	351.1700439453125	-1156.432250976562	497.5606994628906	544.3121337890625	-1100.352416992188	760.6771850585938	584.3896484375	-1350.769653320312	45.33024597167969	508.0866088867188	-1204.194458007812	381.3757019042969	541.0822143554688	-1134.296630859375	43.05688095092773	484.72265625	-1190.769165039062	50.43657684326172	441.2180786132812	-1229.49267578125	45.94165420532227	532.8212890625	-1394.795288085938	55.19808959960938	447.3756408691406	
211	2.1	-1208.947021484375	1015.303894042969	503.38623046875	-1211.847534179688	1003.005676269531	327.1785583496094	-1205.388305664062	1069.317993164062	414.5928955078125	-940.5394897460938	1254.763671875	418.6763610839844	-1212.53662109375	1203.529907226562	417.5658569335938	-1138.316284179688	1467.1044921875	419.2514953613281	-963.8348388671875	1370.981323242188	417.5517272949219	-1206.871948242188	1331.083374023438	492.4247436523438	-1165.004516601562	1432.51416015625	319.107421875	-1064.414672851562	1432.030883789062	244.148681640625	-1097.934814453125	1310.82470703125	165.1224822998047	-1107.667602539062	1099.07421875	132.0164489746094	-1158.917358398438	1084.720825195312	224.9617767333984	-1032.56298828125	848.951171875	168.1195983886719	-1099.453491210938	846.7512817382812	117.5563659667969	-1099.53369140625	989.365478515625	115.7382278442383	-1034.775268554688	660.9423828125	175.4922027587891	-1075.615966796875	763.5411987304688	113.9653930664062	-1018.898498535156	764.843017578125	157.3123321533203	-1075.407836914062	1424.679809570312	593.2260131835938	-1091.081787109375	1357.66650390625	656.8709106445312	-1136.795776367188	1094.886840820312	689.8603515625	-1118.276489257812	1071.046752929688	593.8756713867188	-994.6978149414062	841.3423461914062	652.2582397460938	-1065.941040039062	825.7514038085938	701.17333984375	-1125.908203125	1013.258850097656	697.2658081054688	-985.8775634765625	652.43115234375	637.8340454101562	-970.8377685546875	740.697021484375	651.6029663085938	-1027.354736328125	737.6240234375	703.7498168945312	-1074.308349609375	1628.845825195312	510.8999633789062	-933.850830078125	1675.96533203125	344.73583984375	-912.2120971679688	1669.228637695312	468.7127990722656	-1106.240356445312	1643.457885742188	377.001708984375	-1101.742431640625	946.4269409179688	237.9354248046875	-1149.80908203125	937.2922973632812	580.7811889648438	-1023.960327148438	948.437744140625	567.68798828125	-995.96728515625	952.5764770507812	301.6928100585938	-875.915771484375	529.4583129882812	295.5835266113281	-958.3790893554688	645.0108032226562	247.3451385498047	-819.8838500976562	59.32155609130859	279.8055114746094	-853.5792236328125	283.4736938476562	272.1982727050781	-632.42578125	129.7432556152344	306.0412902832031	-679.9380493164062	105.7499771118164	352.737548828125	-718.6188354492188	85.29669952392578	250.9388580322266	-873.9332275390625	42.55158615112305	351.7183227539062	-1151.834350585938	496.8865356445312	543.9125366210938	-1094.302734375	759.72216796875	583.7396240234375	-1350.576416015625	46.21970748901367	508.00048828125	-1200.909301757812	381.0554504394531	540.8475952148438	-1134.173828125	42.93575668334961	484.649169921875	-1190.6123046875	50.38877487182617	441.2605895996094	-1229.348022460938	45.93749618530273	532.7453002929688	-1394.538208007812	56.83796310424805	447.3469543457031	
212	2.11	-1201.908447265625	1014.249755859375	502.51416015625	-1204.916748046875	1002.031127929688	326.3245849609375	-1198.372436523438	1068.276245117188	413.8034362792969	-933.6781005859375	1253.737915039062	417.3655090332031	-1205.571899414062	1202.39404296875	416.8478088378906	-1131.505859375	1466.03466796875	418.3057556152344	-957.00927734375	1369.951782226562	416.2419128417969	-1199.86279296875	1329.978637695312	491.6668701171875	-1158.400146484375	1431.370971679688	318.2430725097656	-1058.017333984375	1430.913330078125	243.0330810546875	-1091.764770507812	1309.682739257812	164.1333312988281	-1101.76171875	1098.015380859375	131.0012969970703	-1152.623168945312	1083.60546875	224.2066040039062	-1027.16845703125	847.6144409179688	166.2476654052734	-1094.290771484375	845.7503051757812	115.9919281005859	-1093.962646484375	988.346923828125	114.4999160766602	-1029.932495117188	659.60205078125	173.1430511474609	-1070.7373046875	762.4790649414062	112.0722045898438	-1013.772033691406	763.5015869140625	155.1639862060547	-1068.155395507812	1423.682006835938	592.170654296875	-1083.7001953125	1356.630493164062	655.8695678710938	-1129.2158203125	1093.864379882812	688.9263305664062	-1110.995239257812	1069.96484375	592.9674682617188	-987.1825561523438	840.3712158203125	650.8713989257812	-1058.263305664062	824.7288818359375	699.9976806640625	-1118.308715820312	1012.20166015625	696.3203125	-978.2862548828125	651.4754638671875	636.4274291992188	-963.287109375	739.7178344726562	650.1472778320312	-1019.648498535156	736.6240844726562	702.4541015625	-1067.499145507812	1627.784057617188	509.9432373046875	-927.7691650390625	1675.158935546875	343.2164001464844	-905.6319580078125	1668.41943359375	467.1003112792969	-1099.978149414062	1642.353881835938	376.169677734375	-1094.937377929688	945.282470703125	237.1005859375	-1142.91162109375	936.3026123046875	579.958251953125	-1017.019592285156	947.3307495117188	566.722900390625	-988.987060546875	951.4531860351562	300.7020263671875	-870.64111328125	527.9854125976562	294.9752197265625	-952.9052734375	643.2278442382812	246.57421875	-811.4996948242188	58.49551773071289	280.31396484375	-846.9246215820312	282.4183349609375	272.1593933105469	-624.1683349609375	129.6227569580078	305.4480895996094	-671.364013671875	105.5943832397461	352.4122009277344	-710.4636840820312	84.7265625	250.8880920410156	-865.1131591796875	41.68716049194336	352.53369140625	-1146.9921875	496.2602233886719	543.503662109375	-1088.057739257812	758.8306884765625	583.0140380859375	-1350.3662109375	47.28047180175781	507.9837341308594	-1197.423583984375	380.7924499511719	540.6375122070312	-1134.048950195312	42.81869506835938	484.5950012207031	-1190.469360351562	50.37680435180664	441.3297424316406	-1229.151977539062	45.97197723388672	532.7066040039062	-1394.252197265625	58.68656921386719	447.4097900390625	
213	2.12	-1194.708862304688	1013.253295898438	501.5353698730469	-1197.83740234375	1001.074462890625	325.359619140625	-1191.2421875	1067.276733398438	412.90625	-926.6898193359375	1252.7578125	415.9456176757812	-1198.482788085938	1201.297485351562	416.0292053222656	-1124.573120117188	1465.008911132812	417.2785339355469	-950.0648193359375	1368.970458984375	414.828369140625	-1192.726440429688	1328.920288085938	490.829833984375	-1151.678466796875	1430.273315429688	317.2922058105469	-1051.499755859375	1429.849243164062	241.8257141113281	-1085.455688476562	1308.586547851562	163.0460052490234	-1095.671020507812	1096.98974609375	129.9030303955078	-1146.156005859375	1082.524536132812	223.3587341308594	-1021.536315917969	846.341064453125	164.3463897705078	-1088.882934570312	844.7847290039062	114.3842468261719	-1088.1806640625	987.3613891601562	113.1943130493164	-1024.799926757812	658.3298950195312	170.7813262939453	-1065.584838867188	761.4628295898438	110.1530532836914	-1008.390930175781	762.2332763671875	152.98291015625	-1060.758422851562	1422.721801757812	591.019287109375	-1076.183227539062	1355.62744140625	654.78173828125	-1121.483520507812	1092.887817382812	687.9195556640625	-1103.584838867188	1068.92138671875	591.9739990234375	-979.55078125	839.4296875	649.3817749023438	-1050.460815429688	823.739013671875	698.75146484375	-1110.573608398438	1011.188903808594	695.3099365234375	-970.622314453125	650.5474243164062	634.9247436523438	-955.62890625	738.76953125	648.5955810546875	-1011.827209472656	735.66064453125	701.0674438476562	-1060.600341796875	1626.750244140625	508.8950500488281	-921.6171875	1674.412475585938	341.6063537597656	-898.9667358398438	1667.675659179688	465.3921813964844	-1093.629272460938	1641.274658203125	375.2627868652344	-1087.982421875	944.17041015625	236.1444549560547	-1135.8291015625	935.3732299804688	579.0145874023438	-1009.905822753906	946.2874145507812	565.6439208984375	-981.8843383789062	950.3694458007812	299.6019287109375	-864.9867553710938	526.5586547851562	294.2870483398438	-947.0297241210938	641.58642578125	245.8044891357422	-804.5825805664062	57.47364807128906	280.9508666992188	-840.8245239257812	281.182373046875	272.17041015625	-617.11767578125	128.5388031005859	304.7269897460938	-663.9951171875	104.6633758544922	352.0271301269531	-703.7325439453125	83.52394866943359	250.8333587646484	-857.72705078125	40.84759902954102	353.5530395507812	-1141.891967773438	495.6944274902344	543.0814819335938	-1081.607788085938	758.0149536132812	582.2075805664062	-1350.132446289062	48.52839279174805	508.0491638183594	-1193.711547851562	380.6075439453125	540.4526977539062	-1133.919555664062	42.70278930664062	484.5562744140625	-1190.335571289062	50.40545654296875	441.4247741699219	-1228.900390625	46.05162048339844	532.7117309570312	-1393.929077148438	60.75423431396484	447.5802001953125	
